<svg width="80" height="80" viewBox="0 0 80 80" fill="none" xmlns="http://www.w3.org/2000/svg">
<path d="M19.8212 52.1649L16.4412 39.5524L24.3199 37.4424" stroke="#DC2626" stroke-width="2" stroke-linecap="round" stroke-linejoin="round"/>
<path d="M23.7387 44.4138L18.1462 45.9126" stroke="#DC2626" stroke-width="2" stroke-linecap="round" stroke-linejoin="round"/>
<path d="M47.6299 37.9551L42.0361 39.4538" stroke="#DC2626" stroke-width="2" stroke-linecap="round" stroke-linejoin="round"/>
<path d="M59.5825 34.7524L53.99 36.2524" stroke="#DC2626" stroke-width="2" stroke-linecap="round" stroke-linejoin="round"/>
<path d="M31.7787 48.9651L30.09 42.6651H30.0787L28.3975 36.3526L33.8537 34.8901C34.1709 34.805 34.5016 34.7832 34.8272 34.826C35.1528 34.8688 35.4667 34.9753 35.7511 35.1394C36.0355 35.3036 36.2847 35.5221 36.4847 35.7826C36.6846 36.0431 36.8312 36.3404 36.9162 36.6576L37.315 38.1438C37.4 38.4612 37.4216 38.7922 37.3785 39.118C37.3355 39.4437 37.2287 39.7578 37.0642 40.0422C36.8997 40.3267 36.6807 40.5759 36.4198 40.7756C36.1589 40.9754 35.8612 41.1217 35.5437 41.2063L30.085 42.6638" stroke="#DC2626" stroke-width="2" stroke-linecap="round" stroke-linejoin="round"/>
<path d="M51.6049 43.6488L43.7262 45.7601L40.3474 33.1476L48.2262 31.0376" stroke="#DC2626" stroke-width="2" stroke-linecap="round" stroke-linejoin="round"/>
<path d="M63.5588 40.4462L55.6788 42.5562L52.3 29.9462L60.1788 27.8337" stroke="#DC2626" stroke-width="2" stroke-linecap="round" stroke-linejoin="round"/>
<path d="M39.6525 46.8525L33.5425 41.73" stroke="#DC2626" stroke-width="2" stroke-linecap="round" stroke-linejoin="round"/>
<path d="M19.4375 28.125C20.9957 25.4235 23.0712 23.0556 25.5451 21.1566C28.0191 19.2577 30.8431 17.865 33.8557 17.0582C36.8682 16.2514 40.0102 16.0462 43.1021 16.4545C46.194 16.8627 49.1751 17.8764 51.875 19.4375" stroke="#DC2626" stroke-width="2" stroke-linecap="round" stroke-linejoin="round"/>
<path d="M28.1375 60.5625C31.7382 62.66 35.8328 63.7602 40 63.75C44.1687 63.7526 48.2645 62.6562 51.8745 60.5714C55.4845 58.4866 58.4812 55.487 60.5625 51.875" stroke="#DC2626" stroke-width="2" stroke-linecap="round" stroke-linejoin="round"/>
<path d="M63.725 63.725C65.975 61.475 70.9638 61.3838 72.4825 58.7563C74.0563 56.0338 71.6225 51.6538 72.415 48.6888C73.2175 45.6775 77.5 43.0937 77.5 40C77.5 36.9063 73.2187 34.3225 72.415 31.3125C71.6225 28.3475 74.0562 23.9663 72.4837 21.245C70.9625 18.62 65.9737 18.525 63.725 16.2762C61.4762 14.0275 61.3838 9.0375 58.7563 7.51875C56.035 5.945 51.6538 8.38 48.6888 7.5875C45.6788 6.7825 43.0937 2.5 40 2.5C36.9063 2.5 34.3212 6.78375 31.3125 7.58625C28.3462 8.375 23.9663 5.94375 21.25 7.5175C18.625 9.03625 18.53 14.0263 16.28 16.275C14.03 18.5238 9.0375 18.6162 7.5175 21.25C5.94375 23.97 8.37875 28.3512 7.585 31.3162C6.7825 34.3212 2.5 36.9063 2.5 40C2.5 43.0937 6.7825 45.6763 7.585 48.6863C8.3775 51.6525 5.94375 56.0325 7.5175 58.755C9.03625 61.38 14.0263 61.475 16.275 63.7238C18.5238 65.9725 18.6162 70.9625 21.25 72.4825C23.97 74.0563 28.3512 71.6237 31.3162 72.415C34.3212 73.2162 36.9063 77.5 40 77.5C43.0937 77.5 45.6788 73.2162 48.6875 72.4137C51.6538 71.6225 56.035 74.0538 58.755 72.4813C61.3838 70.9625 61.4762 65.9737 63.725 63.725Z" stroke="#DC2626" stroke-width="2" stroke-linecap="round" stroke-linejoin="round"/>
</svg>
